<mxfile host="Electron" modified="2024-09-07T05:12:48.763Z" agent="Mozilla/5.0 (X11; Linux x86_64) AppleWebKit/537.36 (KHTML, like Gecko) draw.io/24.6.4 Chrome/124.0.6367.207 Electron/30.0.6 Safari/537.36" etag="psRhbw4tMZDnXTMG3M9U" version="24.6.4" type="device">
  <diagram name="Page-1" id="O33gQqHAX0xlnx5N4nN8">
    <mxGraphModel dx="2607" dy="1525" grid="1" gridSize="10" guides="1" tooltips="1" connect="1" arrows="1" fold="1" page="1" pageScale="1" pageWidth="850" pageHeight="1100" math="0" shadow="0">
      <root>
        <mxCell id="0" />
        <mxCell id="1" parent="0" />
        <mxCell id="GCUDm2AIkqy-7xgMNy4q-196" style="edgeStyle=orthogonalEdgeStyle;rounded=0;orthogonalLoop=1;jettySize=auto;html=1;entryX=0.005;entryY=0.63;entryDx=0;entryDy=0;entryPerimeter=0;exitX=0.5;exitY=1;exitDx=0;exitDy=0;exitPerimeter=0;curved=1;" edge="1" parent="1" source="GCUDm2AIkqy-7xgMNy4q-33" target="GCUDm2AIkqy-7xgMNy4q-192">
          <mxGeometry relative="1" as="geometry" />
        </mxCell>
        <mxCell id="GCUDm2AIkqy-7xgMNy4q-2" value="leishmaniapp (Namespace)" style="fontStyle=0;verticalAlign=top;align=center;spacingTop=-2;fillColor=none;rounded=0;whiteSpace=wrap;html=1;strokeColor=#4376BB;strokeWidth=1;dashed=0;container=1;collapsible=0;expand=0;recursiveResize=0;" vertex="1" parent="1">
          <mxGeometry x="50" y="50" width="750" height="790" as="geometry" />
        </mxCell>
        <mxCell id="GCUDm2AIkqy-7xgMNy4q-1" value="" style="aspect=fixed;sketch=0;html=1;dashed=0;whitespace=wrap;verticalLabelPosition=bottom;verticalAlign=top;fillColor=#2875E2;strokeColor=#ffffff;points=[[0.005,0.63,0],[0.1,0.2,0],[0.9,0.2,0],[0.5,0,0],[0.995,0.63,0],[0.72,0.99,0],[0.5,1,0],[0.28,0.99,0]];shape=mxgraph.kubernetes.icon2;prIcon=ns" vertex="1" parent="GCUDm2AIkqy-7xgMNy4q-2">
          <mxGeometry x="-20" y="-20" width="50" height="48" as="geometry" />
        </mxCell>
        <mxCell id="GCUDm2AIkqy-7xgMNy4q-112" style="rounded=0;orthogonalLoop=1;jettySize=auto;html=1;" edge="1" parent="GCUDm2AIkqy-7xgMNy4q-2" source="GCUDm2AIkqy-7xgMNy4q-4" target="GCUDm2AIkqy-7xgMNy4q-107">
          <mxGeometry relative="1" as="geometry" />
        </mxCell>
        <mxCell id="GCUDm2AIkqy-7xgMNy4q-108" style="rounded=0;orthogonalLoop=1;jettySize=auto;html=1;entryX=0.005;entryY=0.63;entryDx=0;entryDy=0;entryPerimeter=0;" edge="1" parent="GCUDm2AIkqy-7xgMNy4q-2" source="GCUDm2AIkqy-7xgMNy4q-107" target="GCUDm2AIkqy-7xgMNy4q-34">
          <mxGeometry relative="1" as="geometry" />
        </mxCell>
        <mxCell id="GCUDm2AIkqy-7xgMNy4q-109" style="rounded=0;orthogonalLoop=1;jettySize=auto;html=1;entryX=0.005;entryY=0.63;entryDx=0;entryDy=0;entryPerimeter=0;" edge="1" parent="GCUDm2AIkqy-7xgMNy4q-2" source="GCUDm2AIkqy-7xgMNy4q-107" target="GCUDm2AIkqy-7xgMNy4q-28">
          <mxGeometry relative="1" as="geometry" />
        </mxCell>
        <mxCell id="GCUDm2AIkqy-7xgMNy4q-110" style="rounded=0;orthogonalLoop=1;jettySize=auto;html=1;entryX=0.005;entryY=0.63;entryDx=0;entryDy=0;entryPerimeter=0;" edge="1" parent="GCUDm2AIkqy-7xgMNy4q-2" source="GCUDm2AIkqy-7xgMNy4q-107" target="GCUDm2AIkqy-7xgMNy4q-13">
          <mxGeometry relative="1" as="geometry" />
        </mxCell>
        <mxCell id="GCUDm2AIkqy-7xgMNy4q-111" style="rounded=0;orthogonalLoop=1;jettySize=auto;html=1;entryX=0.005;entryY=0.63;entryDx=0;entryDy=0;entryPerimeter=0;" edge="1" parent="GCUDm2AIkqy-7xgMNy4q-2" source="GCUDm2AIkqy-7xgMNy4q-107" target="GCUDm2AIkqy-7xgMNy4q-9">
          <mxGeometry relative="1" as="geometry" />
        </mxCell>
        <mxCell id="GCUDm2AIkqy-7xgMNy4q-113" value="" style="group" vertex="1" connectable="0" parent="GCUDm2AIkqy-7xgMNy4q-2">
          <mxGeometry x="30" y="300" width="250" height="133" as="geometry" />
        </mxCell>
        <mxCell id="GCUDm2AIkqy-7xgMNy4q-4" value="service-gateway&lt;br&gt;(leishmaniapp.cloud/service_gateway)" style="aspect=fixed;sketch=0;html=1;dashed=0;whitespace=wrap;verticalLabelPosition=bottom;verticalAlign=top;fillColor=#2875E2;strokeColor=#ffffff;points=[[0.005,0.63,0],[0.1,0.2,0],[0.9,0.2,0],[0.5,0,0],[0.995,0.63,0],[0.72,0.99,0],[0.5,1,0],[0.28,0.99,0]];shape=mxgraph.kubernetes.icon2;prIcon=pod" vertex="1" parent="GCUDm2AIkqy-7xgMNy4q-113">
          <mxGeometry x="110" y="85" width="50" height="48" as="geometry" />
        </mxCell>
        <mxCell id="GCUDm2AIkqy-7xgMNy4q-37" value="gateway-config&lt;br&gt;(Contains config.yaml)" style="aspect=fixed;sketch=0;html=1;dashed=0;whitespace=wrap;verticalLabelPosition=bottom;verticalAlign=top;fillColor=#2875E2;strokeColor=#ffffff;points=[[0.005,0.63,0],[0.1,0.2,0],[0.9,0.2,0],[0.5,0,0],[0.995,0.63,0],[0.72,0.99,0],[0.5,1,0],[0.28,0.99,0]];shape=mxgraph.kubernetes.icon2;prIcon=c_m" vertex="1" parent="GCUDm2AIkqy-7xgMNy4q-113">
          <mxGeometry x="200" width="50" height="48" as="geometry" />
        </mxCell>
        <mxCell id="GCUDm2AIkqy-7xgMNy4q-3" value="gateway-svc&lt;br&gt;NodePort&amp;nbsp;&lt;br&gt;(31080:9871)" style="aspect=fixed;sketch=0;html=1;dashed=0;whitespace=wrap;verticalLabelPosition=bottom;verticalAlign=top;fillColor=#2875E2;strokeColor=#ffffff;points=[[0.005,0.63,0],[0.1,0.2,0],[0.9,0.2,0],[0.5,0,0],[0.995,0.63,0],[0.72,0.99,0],[0.5,1,0],[0.28,0.99,0]];shape=mxgraph.kubernetes.icon2;prIcon=svc;labelBackgroundColor=default;" vertex="1" parent="GCUDm2AIkqy-7xgMNy4q-113">
          <mxGeometry y="30" width="50" height="48" as="geometry" />
        </mxCell>
        <mxCell id="GCUDm2AIkqy-7xgMNy4q-38" style="edgeStyle=orthogonalEdgeStyle;rounded=0;orthogonalLoop=1;jettySize=auto;html=1;entryX=0.517;entryY=0.148;entryDx=0;entryDy=0;entryPerimeter=0;curved=1;" edge="1" parent="GCUDm2AIkqy-7xgMNy4q-113" source="GCUDm2AIkqy-7xgMNy4q-37" target="GCUDm2AIkqy-7xgMNy4q-4">
          <mxGeometry relative="1" as="geometry" />
        </mxCell>
        <mxCell id="GCUDm2AIkqy-7xgMNy4q-5" style="edgeStyle=orthogonalEdgeStyle;rounded=0;orthogonalLoop=1;jettySize=auto;html=1;entryX=0.005;entryY=0.63;entryDx=0;entryDy=0;entryPerimeter=0;curved=1;" edge="1" parent="GCUDm2AIkqy-7xgMNy4q-113" source="GCUDm2AIkqy-7xgMNy4q-3" target="GCUDm2AIkqy-7xgMNy4q-4">
          <mxGeometry relative="1" as="geometry" />
        </mxCell>
        <mxCell id="GCUDm2AIkqy-7xgMNy4q-65" value="" style="group" vertex="1" connectable="0" parent="GCUDm2AIkqy-7xgMNy4q-2">
          <mxGeometry x="410" y="226" width="230" height="113" as="geometry" />
        </mxCell>
        <mxCell id="GCUDm2AIkqy-7xgMNy4q-40" value="diagnoses-secrets" style="aspect=fixed;sketch=0;html=1;dashed=0;whitespace=wrap;verticalLabelPosition=bottom;verticalAlign=top;fillColor=#2875E2;strokeColor=#ffffff;points=[[0.005,0.63,0],[0.1,0.2,0],[0.9,0.2,0],[0.5,0,0],[0.995,0.63,0],[0.72,0.99,0],[0.5,1,0],[0.28,0.99,0]];shape=mxgraph.kubernetes.icon2;prIcon=secret" vertex="1" parent="GCUDm2AIkqy-7xgMNy4q-65">
          <mxGeometry x="180" width="50" height="48" as="geometry" />
        </mxCell>
        <mxCell id="GCUDm2AIkqy-7xgMNy4q-11" value="diagnoses-service&lt;br&gt;&lt;div&gt;(leishmaniapp.cloud/diagnoses_service)&lt;br&gt;&lt;/div&gt;" style="aspect=fixed;sketch=0;html=1;dashed=0;whitespace=wrap;verticalLabelPosition=bottom;verticalAlign=top;fillColor=#2875E2;strokeColor=#ffffff;points=[[0.005,0.63,0],[0.1,0.2,0],[0.9,0.2,0],[0.5,0,0],[0.995,0.63,0],[0.72,0.99,0],[0.5,1,0],[0.28,0.99,0]];shape=mxgraph.kubernetes.icon2;prIcon=pod" vertex="1" parent="GCUDm2AIkqy-7xgMNy4q-65">
          <mxGeometry x="110" y="65" width="50" height="48" as="geometry" />
        </mxCell>
        <mxCell id="GCUDm2AIkqy-7xgMNy4q-13" value="grpc-diagnoses&lt;br&gt;ClusterIP (9873)" style="aspect=fixed;sketch=0;html=1;dashed=0;whitespace=wrap;verticalLabelPosition=bottom;verticalAlign=top;fillColor=#2875E2;strokeColor=#ffffff;points=[[0.005,0.63,0],[0.1,0.2,0],[0.9,0.2,0],[0.5,0,0],[0.995,0.63,0],[0.72,0.99,0],[0.5,1,0],[0.28,0.99,0]];shape=mxgraph.kubernetes.icon2;prIcon=svc;labelBackgroundColor=default;" vertex="1" parent="GCUDm2AIkqy-7xgMNy4q-65">
          <mxGeometry y="30" width="50" height="48" as="geometry" />
        </mxCell>
        <mxCell id="GCUDm2AIkqy-7xgMNy4q-42" value="" style="edgeStyle=orthogonalEdgeStyle;rounded=0;orthogonalLoop=1;jettySize=auto;html=1;curved=1;" edge="1" parent="GCUDm2AIkqy-7xgMNy4q-65" source="GCUDm2AIkqy-7xgMNy4q-40" target="GCUDm2AIkqy-7xgMNy4q-11">
          <mxGeometry relative="1" as="geometry" />
        </mxCell>
        <mxCell id="GCUDm2AIkqy-7xgMNy4q-12" style="edgeStyle=orthogonalEdgeStyle;rounded=0;orthogonalLoop=1;jettySize=auto;html=1;entryX=0.005;entryY=0.63;entryDx=0;entryDy=0;entryPerimeter=0;curved=1;" edge="1" parent="GCUDm2AIkqy-7xgMNy4q-65" source="GCUDm2AIkqy-7xgMNy4q-13" target="GCUDm2AIkqy-7xgMNy4q-11">
          <mxGeometry relative="1" as="geometry" />
        </mxCell>
        <mxCell id="GCUDm2AIkqy-7xgMNy4q-163" value="" style="aspect=fixed;sketch=0;html=1;dashed=0;whitespace=wrap;verticalLabelPosition=bottom;verticalAlign=top;fillColor=#2875E2;strokeColor=#ffffff;points=[[0.005,0.63,0],[0.1,0.2,0],[0.9,0.2,0],[0.5,0,0],[0.995,0.63,0],[0.72,0.99,0],[0.5,1,0],[0.28,0.99,0]];shape=mxgraph.kubernetes.icon2;prIcon=deploy" vertex="1" parent="GCUDm2AIkqy-7xgMNy4q-65">
          <mxGeometry x="99.38" y="54" width="31.25" height="30" as="geometry" />
        </mxCell>
        <mxCell id="GCUDm2AIkqy-7xgMNy4q-99" value="" style="group" vertex="1" connectable="0" parent="GCUDm2AIkqy-7xgMNy4q-2">
          <mxGeometry x="410" y="396" width="270" height="141" as="geometry" />
        </mxCell>
        <mxCell id="GCUDm2AIkqy-7xgMNy4q-46" style="edgeStyle=orthogonalEdgeStyle;rounded=0;orthogonalLoop=1;jettySize=auto;html=1;entryX=0.5;entryY=0;entryDx=0;entryDy=0;entryPerimeter=0;" edge="1" parent="GCUDm2AIkqy-7xgMNy4q-99" source="GCUDm2AIkqy-7xgMNy4q-45" target="GCUDm2AIkqy-7xgMNy4q-27">
          <mxGeometry relative="1" as="geometry" />
        </mxCell>
        <mxCell id="GCUDm2AIkqy-7xgMNy4q-30" value="samples-pvc" style="aspect=fixed;sketch=0;html=1;dashed=0;whitespace=wrap;verticalLabelPosition=bottom;verticalAlign=top;fillColor=#2875E2;strokeColor=#ffffff;points=[[0.005,0.63,0],[0.1,0.2,0],[0.9,0.2,0],[0.5,0,0],[0.995,0.63,0],[0.72,0.99,0],[0.5,1,0],[0.28,0.99,0]];shape=mxgraph.kubernetes.icon2;prIcon=pvc" vertex="1" parent="GCUDm2AIkqy-7xgMNy4q-99">
          <mxGeometry x="220" y="20" width="50" height="48" as="geometry" />
        </mxCell>
        <mxCell id="GCUDm2AIkqy-7xgMNy4q-45" value="samples-secrets" style="aspect=fixed;sketch=0;html=1;dashed=0;whitespace=wrap;verticalLabelPosition=bottom;verticalAlign=top;fillColor=#2875E2;strokeColor=#ffffff;points=[[0.005,0.63,0],[0.1,0.2,0],[0.9,0.2,0],[0.5,0,0],[0.995,0.63,0],[0.72,0.99,0],[0.5,1,0],[0.28,0.99,0]];shape=mxgraph.kubernetes.icon2;prIcon=secret;labelBackgroundColor=default;" vertex="1" parent="GCUDm2AIkqy-7xgMNy4q-99">
          <mxGeometry x="110" width="50" height="48" as="geometry" />
        </mxCell>
        <mxCell id="GCUDm2AIkqy-7xgMNy4q-27" value="samples-service&lt;br&gt;&lt;div&gt;(leishmaniapp.cloud/samples_service)&lt;br&gt;&lt;/div&gt;" style="aspect=fixed;sketch=0;html=1;dashed=0;whitespace=wrap;verticalLabelPosition=bottom;verticalAlign=top;fillColor=#2875E2;strokeColor=#ffffff;points=[[0.005,0.63,0],[0.1,0.2,0],[0.9,0.2,0],[0.5,0,0],[0.995,0.63,0],[0.72,0.99,0],[0.5,1,0],[0.28,0.99,0]];shape=mxgraph.kubernetes.icon2;prIcon=pod" vertex="1" parent="GCUDm2AIkqy-7xgMNy4q-99">
          <mxGeometry x="110" y="93" width="50" height="48" as="geometry" />
        </mxCell>
        <mxCell id="GCUDm2AIkqy-7xgMNy4q-28" value="grpc-samples&lt;br&gt;ClusterIP (9874)" style="aspect=fixed;sketch=0;html=1;dashed=0;whitespace=wrap;verticalLabelPosition=bottom;verticalAlign=top;fillColor=#2875E2;strokeColor=#ffffff;points=[[0.005,0.63,0],[0.1,0.2,0],[0.9,0.2,0],[0.5,0,0],[0.995,0.63,0],[0.72,0.99,0],[0.5,1,0],[0.28,0.99,0]];shape=mxgraph.kubernetes.icon2;prIcon=svc;labelBackgroundColor=default;" vertex="1" parent="GCUDm2AIkqy-7xgMNy4q-99">
          <mxGeometry y="58" width="50" height="48" as="geometry" />
        </mxCell>
        <mxCell id="GCUDm2AIkqy-7xgMNy4q-31" style="edgeStyle=orthogonalEdgeStyle;rounded=0;orthogonalLoop=1;jettySize=auto;html=1;entryX=0.005;entryY=0.63;entryDx=0;entryDy=0;entryPerimeter=0;curved=1;exitX=0.9;exitY=0.2;exitDx=0;exitDy=0;exitPerimeter=0;" edge="1" parent="GCUDm2AIkqy-7xgMNy4q-99" source="GCUDm2AIkqy-7xgMNy4q-27" target="GCUDm2AIkqy-7xgMNy4q-30">
          <mxGeometry relative="1" as="geometry" />
        </mxCell>
        <mxCell id="GCUDm2AIkqy-7xgMNy4q-29" style="edgeStyle=orthogonalEdgeStyle;rounded=0;orthogonalLoop=1;jettySize=auto;html=1;entryX=0.005;entryY=0.63;entryDx=0;entryDy=0;entryPerimeter=0;curved=1;" edge="1" parent="GCUDm2AIkqy-7xgMNy4q-99" source="GCUDm2AIkqy-7xgMNy4q-28" target="GCUDm2AIkqy-7xgMNy4q-27">
          <mxGeometry relative="1" as="geometry" />
        </mxCell>
        <mxCell id="GCUDm2AIkqy-7xgMNy4q-165" value="" style="aspect=fixed;sketch=0;html=1;dashed=0;whitespace=wrap;verticalLabelPosition=bottom;verticalAlign=top;fillColor=#2875E2;strokeColor=#ffffff;points=[[0.005,0.63,0],[0.1,0.2,0],[0.9,0.2,0],[0.5,0,0],[0.995,0.63,0],[0.72,0.99,0],[0.5,1,0],[0.28,0.99,0]];shape=mxgraph.kubernetes.icon2;prIcon=deploy" vertex="1" parent="GCUDm2AIkqy-7xgMNy4q-99">
          <mxGeometry x="100" y="84" width="31.25" height="30" as="geometry" />
        </mxCell>
        <mxCell id="GCUDm2AIkqy-7xgMNy4q-106" value="" style="group" vertex="1" connectable="0" parent="GCUDm2AIkqy-7xgMNy4q-2">
          <mxGeometry x="410" y="580" width="270" height="143" as="geometry" />
        </mxCell>
        <mxCell id="GCUDm2AIkqy-7xgMNy4q-57" value="analysis-config" style="aspect=fixed;sketch=0;html=1;dashed=0;whitespace=wrap;verticalLabelPosition=bottom;verticalAlign=top;fillColor=#2875E2;strokeColor=#ffffff;points=[[0.005,0.63,0],[0.1,0.2,0],[0.9,0.2,0],[0.5,0,0],[0.995,0.63,0],[0.72,0.99,0],[0.5,1,0],[0.28,0.99,0]];shape=mxgraph.kubernetes.icon2;prIcon=c_m" vertex="1" parent="GCUDm2AIkqy-7xgMNy4q-106">
          <mxGeometry x="220" y="30" width="50" height="48" as="geometry" />
        </mxCell>
        <mxCell id="GCUDm2AIkqy-7xgMNy4q-33" value="analysis-service&lt;br&gt;&lt;div&gt;(leishmaniapp.cloud/analysis_service)&lt;br&gt;&lt;/div&gt;" style="aspect=fixed;sketch=0;html=1;dashed=0;whitespace=wrap;verticalLabelPosition=bottom;verticalAlign=top;fillColor=#2875E2;strokeColor=#ffffff;points=[[0.005,0.63,0],[0.1,0.2,0],[0.9,0.2,0],[0.5,0,0],[0.995,0.63,0],[0.72,0.99,0],[0.5,1,0],[0.28,0.99,0]];shape=mxgraph.kubernetes.icon2;prIcon=pod;labelBackgroundColor=default;" vertex="1" parent="GCUDm2AIkqy-7xgMNy4q-106">
          <mxGeometry x="110" y="95" width="50" height="48" as="geometry" />
        </mxCell>
        <mxCell id="GCUDm2AIkqy-7xgMNy4q-34" value="grpc-analysis&lt;br&gt;ClusterIP (9872)" style="aspect=fixed;sketch=0;html=1;dashed=0;whitespace=wrap;verticalLabelPosition=bottom;verticalAlign=top;fillColor=#2875E2;strokeColor=#ffffff;points=[[0.005,0.63,0],[0.1,0.2,0],[0.9,0.2,0],[0.5,0,0],[0.995,0.63,0],[0.72,0.99,0],[0.5,1,0],[0.28,0.99,0]];shape=mxgraph.kubernetes.icon2;prIcon=svc;labelBackgroundColor=default;" vertex="1" parent="GCUDm2AIkqy-7xgMNy4q-106">
          <mxGeometry y="60" width="50" height="48" as="geometry" />
        </mxCell>
        <mxCell id="GCUDm2AIkqy-7xgMNy4q-101" style="edgeStyle=orthogonalEdgeStyle;rounded=0;orthogonalLoop=1;jettySize=auto;html=1;entryX=0.005;entryY=0.63;entryDx=0;entryDy=0;entryPerimeter=0;curved=1;exitX=0.9;exitY=0.2;exitDx=0;exitDy=0;exitPerimeter=0;" edge="1" parent="GCUDm2AIkqy-7xgMNy4q-106" source="GCUDm2AIkqy-7xgMNy4q-33" target="GCUDm2AIkqy-7xgMNy4q-57">
          <mxGeometry relative="1" as="geometry" />
        </mxCell>
        <mxCell id="GCUDm2AIkqy-7xgMNy4q-35" style="edgeStyle=orthogonalEdgeStyle;rounded=0;orthogonalLoop=1;jettySize=auto;html=1;entryX=0.005;entryY=0.63;entryDx=0;entryDy=0;entryPerimeter=0;curved=1;" edge="1" parent="GCUDm2AIkqy-7xgMNy4q-106" source="GCUDm2AIkqy-7xgMNy4q-34" target="GCUDm2AIkqy-7xgMNy4q-33">
          <mxGeometry relative="1" as="geometry" />
        </mxCell>
        <mxCell id="GCUDm2AIkqy-7xgMNy4q-100" style="edgeStyle=orthogonalEdgeStyle;rounded=0;orthogonalLoop=1;jettySize=auto;html=1;entryX=0.5;entryY=0;entryDx=0;entryDy=0;entryPerimeter=0;" edge="1" parent="GCUDm2AIkqy-7xgMNy4q-106" source="GCUDm2AIkqy-7xgMNy4q-58" target="GCUDm2AIkqy-7xgMNy4q-33">
          <mxGeometry relative="1" as="geometry" />
        </mxCell>
        <mxCell id="GCUDm2AIkqy-7xgMNy4q-58" value="analysis-secrets" style="aspect=fixed;sketch=0;html=1;dashed=0;whitespace=wrap;verticalLabelPosition=bottom;verticalAlign=top;fillColor=#2875E2;strokeColor=#ffffff;points=[[0.005,0.63,0],[0.1,0.2,0],[0.9,0.2,0],[0.5,0,0],[0.995,0.63,0],[0.72,0.99,0],[0.5,1,0],[0.28,0.99,0]];shape=mxgraph.kubernetes.icon2;prIcon=secret;labelBackgroundColor=default;" vertex="1" parent="GCUDm2AIkqy-7xgMNy4q-106">
          <mxGeometry x="110" width="50" height="48" as="geometry" />
        </mxCell>
        <mxCell id="GCUDm2AIkqy-7xgMNy4q-166" value="" style="aspect=fixed;sketch=0;html=1;dashed=0;whitespace=wrap;verticalLabelPosition=bottom;verticalAlign=top;fillColor=#2875E2;strokeColor=#ffffff;points=[[0.005,0.63,0],[0.1,0.2,0],[0.9,0.2,0],[0.5,0,0],[0.995,0.63,0],[0.72,0.99,0],[0.5,1,0],[0.28,0.99,0]];shape=mxgraph.kubernetes.icon2;prIcon=deploy" vertex="1" parent="GCUDm2AIkqy-7xgMNy4q-106">
          <mxGeometry x="100" y="90" width="31.25" height="30" as="geometry" />
        </mxCell>
        <mxCell id="GCUDm2AIkqy-7xgMNy4q-98" value="" style="group" vertex="1" connectable="0" parent="GCUDm2AIkqy-7xgMNy4q-2">
          <mxGeometry x="410" y="40" width="220" height="115" as="geometry" />
        </mxCell>
        <mxCell id="GCUDm2AIkqy-7xgMNy4q-36" value="auth-secrets" style="aspect=fixed;sketch=0;html=1;dashed=0;whitespace=wrap;verticalLabelPosition=bottom;verticalAlign=top;fillColor=#2875E2;strokeColor=#ffffff;points=[[0.005,0.63,0],[0.1,0.2,0],[0.9,0.2,0],[0.5,0,0],[0.995,0.63,0],[0.72,0.99,0],[0.5,1,0],[0.28,0.99,0]];shape=mxgraph.kubernetes.icon2;prIcon=secret" vertex="1" parent="GCUDm2AIkqy-7xgMNy4q-98">
          <mxGeometry x="170" width="50" height="48" as="geometry" />
        </mxCell>
        <mxCell id="GCUDm2AIkqy-7xgMNy4q-6" value="auth-service&lt;br&gt;&lt;div&gt;(l&lt;span style=&quot;background-color: initial;&quot;&gt;eishmaniapp.cloud/auth_service&lt;/span&gt;&lt;span style=&quot;background-color: initial;&quot;&gt;)&lt;/span&gt;&lt;/div&gt;" style="aspect=fixed;sketch=0;html=1;dashed=0;whitespace=wrap;verticalLabelPosition=bottom;verticalAlign=top;fillColor=#2875E2;strokeColor=#ffffff;points=[[0.005,0.63,0],[0.1,0.2,0],[0.9,0.2,0],[0.5,0,0],[0.995,0.63,0],[0.72,0.99,0],[0.5,1,0],[0.28,0.99,0]];shape=mxgraph.kubernetes.icon2;prIcon=pod" vertex="1" parent="GCUDm2AIkqy-7xgMNy4q-98">
          <mxGeometry x="110" y="67" width="50" height="48" as="geometry" />
        </mxCell>
        <mxCell id="GCUDm2AIkqy-7xgMNy4q-9" value="grpc-auth&lt;br&gt;ClusterIP (9875)" style="aspect=fixed;sketch=0;html=1;dashed=0;whitespace=wrap;verticalLabelPosition=bottom;verticalAlign=top;fillColor=#2875E2;strokeColor=#ffffff;points=[[0.005,0.63,0],[0.1,0.2,0],[0.9,0.2,0],[0.5,0,0],[0.995,0.63,0],[0.72,0.99,0],[0.5,1,0],[0.28,0.99,0]];shape=mxgraph.kubernetes.icon2;prIcon=svc;labelBackgroundColor=default;" vertex="1" parent="GCUDm2AIkqy-7xgMNy4q-98">
          <mxGeometry y="32" width="50" height="48" as="geometry" />
        </mxCell>
        <mxCell id="GCUDm2AIkqy-7xgMNy4q-39" style="edgeStyle=orthogonalEdgeStyle;rounded=0;orthogonalLoop=1;jettySize=auto;html=1;entryX=0.5;entryY=0;entryDx=0;entryDy=0;entryPerimeter=0;curved=1;" edge="1" parent="GCUDm2AIkqy-7xgMNy4q-98" source="GCUDm2AIkqy-7xgMNy4q-36" target="GCUDm2AIkqy-7xgMNy4q-6">
          <mxGeometry relative="1" as="geometry" />
        </mxCell>
        <mxCell id="GCUDm2AIkqy-7xgMNy4q-14" style="edgeStyle=orthogonalEdgeStyle;rounded=0;orthogonalLoop=1;jettySize=auto;html=1;entryX=0.005;entryY=0.63;entryDx=0;entryDy=0;entryPerimeter=0;curved=1;" edge="1" parent="GCUDm2AIkqy-7xgMNy4q-98" source="GCUDm2AIkqy-7xgMNy4q-9" target="GCUDm2AIkqy-7xgMNy4q-6">
          <mxGeometry relative="1" as="geometry" />
        </mxCell>
        <mxCell id="GCUDm2AIkqy-7xgMNy4q-64" value="" style="line;strokeWidth=2;direction=south;html=1;perimeter=backbonePerimeter;points=[];outlineConnect=0;" vertex="1" parent="GCUDm2AIkqy-7xgMNy4q-2">
          <mxGeometry x="720" y="110" width="10" height="610" as="geometry" />
        </mxCell>
        <mxCell id="GCUDm2AIkqy-7xgMNy4q-61" style="rounded=0;orthogonalLoop=1;jettySize=auto;html=1;" edge="1" parent="GCUDm2AIkqy-7xgMNy4q-2" source="GCUDm2AIkqy-7xgMNy4q-11" target="GCUDm2AIkqy-7xgMNy4q-64">
          <mxGeometry relative="1" as="geometry">
            <mxPoint x="780" y="319" as="targetPoint" />
          </mxGeometry>
        </mxCell>
        <mxCell id="GCUDm2AIkqy-7xgMNy4q-62" style="rounded=0;orthogonalLoop=1;jettySize=auto;html=1;" edge="1" parent="GCUDm2AIkqy-7xgMNy4q-2" source="GCUDm2AIkqy-7xgMNy4q-27" target="GCUDm2AIkqy-7xgMNy4q-64">
          <mxGeometry relative="1" as="geometry">
            <mxPoint x="780" y="517" as="targetPoint" />
          </mxGeometry>
        </mxCell>
        <mxCell id="GCUDm2AIkqy-7xgMNy4q-107" value="" style="line;strokeWidth=2;direction=south;html=1;perimeter=backbonePerimeter;points=[];outlineConnect=0;" vertex="1" parent="GCUDm2AIkqy-7xgMNy4q-2">
          <mxGeometry x="320" y="78" width="10" height="610" as="geometry" />
        </mxCell>
        <mxCell id="GCUDm2AIkqy-7xgMNy4q-60" style="rounded=0;orthogonalLoop=1;jettySize=auto;html=1;" edge="1" parent="GCUDm2AIkqy-7xgMNy4q-2" source="GCUDm2AIkqy-7xgMNy4q-6" target="GCUDm2AIkqy-7xgMNy4q-64">
          <mxGeometry relative="1" as="geometry">
            <mxPoint x="780" y="151" as="targetPoint" />
          </mxGeometry>
        </mxCell>
        <mxCell id="GCUDm2AIkqy-7xgMNy4q-103" style="rounded=0;orthogonalLoop=1;jettySize=auto;html=1;" edge="1" parent="GCUDm2AIkqy-7xgMNy4q-2" source="GCUDm2AIkqy-7xgMNy4q-33" target="GCUDm2AIkqy-7xgMNy4q-64">
          <mxGeometry relative="1" as="geometry" />
        </mxCell>
        <mxCell id="GCUDm2AIkqy-7xgMNy4q-164" value="" style="aspect=fixed;sketch=0;html=1;dashed=0;whitespace=wrap;verticalLabelPosition=bottom;verticalAlign=top;fillColor=#2875E2;strokeColor=#ffffff;points=[[0.005,0.63,0],[0.1,0.2,0],[0.9,0.2,0],[0.5,0,0],[0.995,0.63,0],[0.72,0.99,0],[0.5,1,0],[0.28,0.99,0]];shape=mxgraph.kubernetes.icon2;prIcon=deploy" vertex="1" parent="GCUDm2AIkqy-7xgMNy4q-2">
          <mxGeometry x="504.37" y="100" width="31.25" height="30" as="geometry" />
        </mxCell>
        <mxCell id="GCUDm2AIkqy-7xgMNy4q-114" value="mongodb (Namespace)" style="fontStyle=0;verticalAlign=top;align=center;spacingTop=-2;fillColor=none;rounded=0;whiteSpace=wrap;html=1;strokeColor=#4376BB;strokeWidth=1;dashed=0;container=1;collapsible=0;expand=0;recursiveResize=0;" vertex="1" parent="1">
          <mxGeometry x="840" y="180" width="370" height="240" as="geometry" />
        </mxCell>
        <mxCell id="GCUDm2AIkqy-7xgMNy4q-115" value="" style="aspect=fixed;sketch=0;html=1;dashed=0;whitespace=wrap;verticalLabelPosition=bottom;verticalAlign=top;fillColor=#2875E2;strokeColor=#ffffff;points=[[0.005,0.63,0],[0.1,0.2,0],[0.9,0.2,0],[0.5,0,0],[0.995,0.63,0],[0.72,0.99,0],[0.5,1,0],[0.28,0.99,0]];shape=mxgraph.kubernetes.icon2;prIcon=ns" vertex="1" parent="GCUDm2AIkqy-7xgMNy4q-114">
          <mxGeometry x="-20" y="-20" width="50" height="48" as="geometry" />
        </mxCell>
        <mxCell id="GCUDm2AIkqy-7xgMNy4q-182" style="edgeStyle=orthogonalEdgeStyle;rounded=0;orthogonalLoop=1;jettySize=auto;html=1;curved=1;" edge="1" parent="GCUDm2AIkqy-7xgMNy4q-114" source="GCUDm2AIkqy-7xgMNy4q-161" target="GCUDm2AIkqy-7xgMNy4q-185">
          <mxGeometry relative="1" as="geometry">
            <mxPoint x="155.00000000000045" y="150" as="targetPoint" />
          </mxGeometry>
        </mxCell>
        <mxCell id="GCUDm2AIkqy-7xgMNy4q-161" value="mongodb-credentials" style="aspect=fixed;sketch=0;html=1;dashed=0;whitespace=wrap;verticalLabelPosition=bottom;verticalAlign=top;fillColor=#2875E2;strokeColor=#ffffff;points=[[0.005,0.63,0],[0.1,0.2,0],[0.9,0.2,0],[0.5,0,0],[0.995,0.63,0],[0.72,0.99,0],[0.5,1,0],[0.28,0.99,0]];shape=mxgraph.kubernetes.icon2;prIcon=secret" vertex="1" parent="GCUDm2AIkqy-7xgMNy4q-114">
          <mxGeometry x="230" y="53" width="50" height="48" as="geometry" />
        </mxCell>
        <mxCell id="GCUDm2AIkqy-7xgMNy4q-179" value="mongodb-pvc" style="aspect=fixed;sketch=0;html=1;dashed=0;whitespace=wrap;verticalLabelPosition=bottom;verticalAlign=top;fillColor=#2875E2;strokeColor=#ffffff;points=[[0.005,0.63,0],[0.1,0.2,0],[0.9,0.2,0],[0.5,0,0],[0.995,0.63,0],[0.72,0.99,0],[0.5,1,0],[0.28,0.99,0]];shape=mxgraph.kubernetes.icon2;prIcon=pvc" vertex="1" parent="GCUDm2AIkqy-7xgMNy4q-114">
          <mxGeometry x="290" y="156" width="50" height="48" as="geometry" />
        </mxCell>
        <mxCell id="GCUDm2AIkqy-7xgMNy4q-181" style="edgeStyle=orthogonalEdgeStyle;rounded=0;orthogonalLoop=1;jettySize=auto;html=1;entryX=0.005;entryY=0.63;entryDx=0;entryDy=0;entryPerimeter=0;exitX=0.5;exitY=1;exitDx=0;exitDy=0;exitPerimeter=0;curved=1;" edge="1" parent="GCUDm2AIkqy-7xgMNy4q-114" source="GCUDm2AIkqy-7xgMNy4q-59" target="GCUDm2AIkqy-7xgMNy4q-185">
          <mxGeometry relative="1" as="geometry">
            <mxPoint x="130.25" y="180.24" as="targetPoint" />
          </mxGeometry>
        </mxCell>
        <mxCell id="GCUDm2AIkqy-7xgMNy4q-59" value="mongodb-database-svc" style="aspect=fixed;sketch=0;html=1;dashed=0;whitespace=wrap;verticalLabelPosition=bottom;verticalAlign=top;fillColor=#2875E2;strokeColor=#ffffff;points=[[0.005,0.63,0],[0.1,0.2,0],[0.9,0.2,0],[0.5,0,0],[0.995,0.63,0],[0.72,0.99,0],[0.5,1,0],[0.28,0.99,0]];shape=mxgraph.kubernetes.icon2;prIcon=svc;labelBackgroundColor=default;" vertex="1" parent="GCUDm2AIkqy-7xgMNy4q-114">
          <mxGeometry x="60" y="53" width="50" height="48" as="geometry" />
        </mxCell>
        <mxCell id="GCUDm2AIkqy-7xgMNy4q-183" style="rounded=0;orthogonalLoop=1;jettySize=auto;html=1;entryX=0.995;entryY=0.63;entryDx=0;entryDy=0;entryPerimeter=0;" edge="1" parent="GCUDm2AIkqy-7xgMNy4q-114" source="GCUDm2AIkqy-7xgMNy4q-179" target="GCUDm2AIkqy-7xgMNy4q-185">
          <mxGeometry relative="1" as="geometry">
            <mxPoint x="179.74999999999955" y="180.24" as="targetPoint" />
          </mxGeometry>
        </mxCell>
        <mxCell id="GCUDm2AIkqy-7xgMNy4q-185" value="mongodb-kubernetes-operator" style="aspect=fixed;sketch=0;html=1;dashed=0;whitespace=wrap;verticalLabelPosition=bottom;verticalAlign=top;fillColor=#2875E2;strokeColor=#ffffff;points=[[0.005,0.63,0],[0.1,0.2,0],[0.9,0.2,0],[0.5,0,0],[0.995,0.63,0],[0.72,0.99,0],[0.5,1,0],[0.28,0.99,0]];shape=mxgraph.kubernetes.icon2;prIcon=deploy" vertex="1" parent="GCUDm2AIkqy-7xgMNy4q-114">
          <mxGeometry x="140" y="150" width="50" height="48" as="geometry" />
        </mxCell>
        <mxCell id="GCUDm2AIkqy-7xgMNy4q-177" style="rounded=0;orthogonalLoop=1;jettySize=auto;html=1;entryX=0.005;entryY=0.63;entryDx=0;entryDy=0;entryPerimeter=0;" edge="1" parent="1" source="GCUDm2AIkqy-7xgMNy4q-64" target="GCUDm2AIkqy-7xgMNy4q-59">
          <mxGeometry relative="1" as="geometry" />
        </mxCell>
        <mxCell id="GCUDm2AIkqy-7xgMNy4q-186" value="rabbitmq (Namespace)" style="fontStyle=0;verticalAlign=top;align=center;spacingTop=-2;fillColor=none;rounded=0;whiteSpace=wrap;html=1;strokeColor=#4376BB;strokeWidth=1;dashed=0;container=1;collapsible=0;expand=0;recursiveResize=0;labelBackgroundColor=default;" vertex="1" parent="1">
          <mxGeometry x="670" y="890" width="240" height="240" as="geometry" />
        </mxCell>
        <mxCell id="GCUDm2AIkqy-7xgMNy4q-187" value="" style="aspect=fixed;sketch=0;html=1;dashed=0;whitespace=wrap;verticalLabelPosition=bottom;verticalAlign=top;fillColor=#2875E2;strokeColor=#ffffff;points=[[0.005,0.63,0],[0.1,0.2,0],[0.9,0.2,0],[0.5,0,0],[0.995,0.63,0],[0.72,0.99,0],[0.5,1,0],[0.28,0.99,0]];shape=mxgraph.kubernetes.icon2;prIcon=ns" vertex="1" parent="GCUDm2AIkqy-7xgMNy4q-186">
          <mxGeometry x="-20" y="-20" width="50" height="48" as="geometry" />
        </mxCell>
        <mxCell id="GCUDm2AIkqy-7xgMNy4q-191" style="edgeStyle=orthogonalEdgeStyle;rounded=0;orthogonalLoop=1;jettySize=auto;html=1;entryX=0.005;entryY=0.63;entryDx=0;entryDy=0;entryPerimeter=0;exitX=0.5;exitY=1;exitDx=0;exitDy=0;exitPerimeter=0;curved=1;" edge="1" parent="GCUDm2AIkqy-7xgMNy4q-186" source="GCUDm2AIkqy-7xgMNy4q-192" target="GCUDm2AIkqy-7xgMNy4q-194">
          <mxGeometry relative="1" as="geometry">
            <mxPoint x="130.25" y="180.24" as="targetPoint" />
          </mxGeometry>
        </mxCell>
        <mxCell id="GCUDm2AIkqy-7xgMNy4q-192" value="rabbitmq-cluster" style="aspect=fixed;sketch=0;html=1;dashed=0;whitespace=wrap;verticalLabelPosition=bottom;verticalAlign=top;fillColor=#2875E2;strokeColor=#ffffff;points=[[0.005,0.63,0],[0.1,0.2,0],[0.9,0.2,0],[0.5,0,0],[0.995,0.63,0],[0.72,0.99,0],[0.5,1,0],[0.28,0.99,0]];shape=mxgraph.kubernetes.icon2;prIcon=svc;labelBackgroundColor=default;" vertex="1" parent="GCUDm2AIkqy-7xgMNy4q-186">
          <mxGeometry x="60" y="53" width="50" height="48" as="geometry" />
        </mxCell>
        <mxCell id="GCUDm2AIkqy-7xgMNy4q-194" value="rabbitmq-operator" style="aspect=fixed;sketch=0;html=1;dashed=0;whitespace=wrap;verticalLabelPosition=bottom;verticalAlign=top;fillColor=#2875E2;strokeColor=#ffffff;points=[[0.005,0.63,0],[0.1,0.2,0],[0.9,0.2,0],[0.5,0,0],[0.995,0.63,0],[0.72,0.99,0],[0.5,1,0],[0.28,0.99,0]];shape=mxgraph.kubernetes.icon2;prIcon=deploy" vertex="1" parent="GCUDm2AIkqy-7xgMNy4q-186">
          <mxGeometry x="140" y="150" width="50" height="48" as="geometry" />
        </mxCell>
        <mxCell id="GCUDm2AIkqy-7xgMNy4q-197" value="models (Namespace)" style="fontStyle=0;verticalAlign=top;align=center;spacingTop=-2;fillColor=none;rounded=0;whiteSpace=wrap;html=1;strokeColor=#4376BB;strokeWidth=1;dashed=0;container=1;collapsible=0;expand=0;recursiveResize=0;labelBackgroundColor=default;" vertex="1" parent="1">
          <mxGeometry x="830" y="480" width="460" height="390" as="geometry" />
        </mxCell>
        <mxCell id="GCUDm2AIkqy-7xgMNy4q-198" value="" style="aspect=fixed;sketch=0;html=1;dashed=0;whitespace=wrap;verticalLabelPosition=bottom;verticalAlign=top;fillColor=#2875E2;strokeColor=#ffffff;points=[[0.005,0.63,0],[0.1,0.2,0],[0.9,0.2,0],[0.5,0,0],[0.995,0.63,0],[0.72,0.99,0],[0.5,1,0],[0.28,0.99,0]];shape=mxgraph.kubernetes.icon2;prIcon=ns" vertex="1" parent="GCUDm2AIkqy-7xgMNy4q-197">
          <mxGeometry x="-20" y="-20" width="50" height="48" as="geometry" />
        </mxCell>
        <mxCell id="GCUDm2AIkqy-7xgMNy4q-206" value="" style="group" vertex="1" connectable="0" parent="GCUDm2AIkqy-7xgMNy4q-197">
          <mxGeometry x="180" y="50" width="61.25" height="59" as="geometry" />
        </mxCell>
        <mxCell id="GCUDm2AIkqy-7xgMNy4q-204" value="&lt;div&gt;mock-spots-model&lt;br&gt;(leishmaniapp.cloud/models/mock-spots)&lt;/div&gt;" style="aspect=fixed;sketch=0;html=1;dashed=0;whitespace=wrap;verticalLabelPosition=bottom;verticalAlign=top;fillColor=#2875E2;strokeColor=#ffffff;points=[[0.005,0.63,0],[0.1,0.2,0],[0.9,0.2,0],[0.5,0,0],[0.995,0.63,0],[0.72,0.99,0],[0.5,1,0],[0.28,0.99,0]];shape=mxgraph.kubernetes.icon2;prIcon=pod" vertex="1" parent="GCUDm2AIkqy-7xgMNy4q-206">
          <mxGeometry x="11.25" y="11" width="50" height="48" as="geometry" />
        </mxCell>
        <mxCell id="GCUDm2AIkqy-7xgMNy4q-205" value="" style="aspect=fixed;sketch=0;html=1;dashed=0;whitespace=wrap;verticalLabelPosition=bottom;verticalAlign=top;fillColor=#2875E2;strokeColor=#ffffff;points=[[0.005,0.63,0],[0.1,0.2,0],[0.9,0.2,0],[0.5,0,0],[0.995,0.63,0],[0.72,0.99,0],[0.5,1,0],[0.28,0.99,0]];shape=mxgraph.kubernetes.icon2;prIcon=deploy" vertex="1" parent="GCUDm2AIkqy-7xgMNy4q-206">
          <mxGeometry width="31.25" height="30" as="geometry" />
        </mxCell>
        <mxCell id="GCUDm2AIkqy-7xgMNy4q-207" value="" style="group" vertex="1" connectable="0" parent="GCUDm2AIkqy-7xgMNy4q-197">
          <mxGeometry x="180" y="156" width="61.25" height="59" as="geometry" />
        </mxCell>
        <mxCell id="GCUDm2AIkqy-7xgMNy4q-208" value="malaria-romanowsky-model&lt;div&gt;(leishmaniapp.cloud/models/malaria-romanowsky)&lt;/div&gt;" style="aspect=fixed;sketch=0;html=1;dashed=0;whitespace=wrap;verticalLabelPosition=bottom;verticalAlign=top;fillColor=#2875E2;strokeColor=#ffffff;points=[[0.005,0.63,0],[0.1,0.2,0],[0.9,0.2,0],[0.5,0,0],[0.995,0.63,0],[0.72,0.99,0],[0.5,1,0],[0.28,0.99,0]];shape=mxgraph.kubernetes.icon2;prIcon=pod" vertex="1" parent="GCUDm2AIkqy-7xgMNy4q-207">
          <mxGeometry x="11.25" y="11" width="50" height="48" as="geometry" />
        </mxCell>
        <mxCell id="GCUDm2AIkqy-7xgMNy4q-209" value="" style="aspect=fixed;sketch=0;html=1;dashed=0;whitespace=wrap;verticalLabelPosition=bottom;verticalAlign=top;fillColor=#2875E2;strokeColor=#ffffff;points=[[0.005,0.63,0],[0.1,0.2,0],[0.9,0.2,0],[0.5,0,0],[0.995,0.63,0],[0.72,0.99,0],[0.5,1,0],[0.28,0.99,0]];shape=mxgraph.kubernetes.icon2;prIcon=deploy" vertex="1" parent="GCUDm2AIkqy-7xgMNy4q-207">
          <mxGeometry width="31.25" height="30" as="geometry" />
        </mxCell>
        <mxCell id="GCUDm2AIkqy-7xgMNy4q-210" value="" style="group" vertex="1" connectable="0" parent="GCUDm2AIkqy-7xgMNy4q-197">
          <mxGeometry x="180" y="261" width="61.25" height="59" as="geometry" />
        </mxCell>
        <mxCell id="GCUDm2AIkqy-7xgMNy4q-211" value="leishmaniasis-giemsa&lt;div&gt;(leishmaniapp.cloud/models/leishmaniasis-giemsa)&lt;/div&gt;" style="aspect=fixed;sketch=0;html=1;dashed=0;whitespace=wrap;verticalLabelPosition=bottom;verticalAlign=top;fillColor=#2875E2;strokeColor=#ffffff;points=[[0.005,0.63,0],[0.1,0.2,0],[0.9,0.2,0],[0.5,0,0],[0.995,0.63,0],[0.72,0.99,0],[0.5,1,0],[0.28,0.99,0]];shape=mxgraph.kubernetes.icon2;prIcon=pod" vertex="1" parent="GCUDm2AIkqy-7xgMNy4q-210">
          <mxGeometry x="11.25" y="11" width="50" height="48" as="geometry" />
        </mxCell>
        <mxCell id="GCUDm2AIkqy-7xgMNy4q-212" value="" style="aspect=fixed;sketch=0;html=1;dashed=0;whitespace=wrap;verticalLabelPosition=bottom;verticalAlign=top;fillColor=#2875E2;strokeColor=#ffffff;points=[[0.005,0.63,0],[0.1,0.2,0],[0.9,0.2,0],[0.5,0,0],[0.995,0.63,0],[0.72,0.99,0],[0.5,1,0],[0.28,0.99,0]];shape=mxgraph.kubernetes.icon2;prIcon=deploy" vertex="1" parent="GCUDm2AIkqy-7xgMNy4q-210">
          <mxGeometry width="31.25" height="30" as="geometry" />
        </mxCell>
        <mxCell id="GCUDm2AIkqy-7xgMNy4q-203" value="models-config" style="aspect=fixed;sketch=0;html=1;dashed=0;whitespace=wrap;verticalLabelPosition=bottom;verticalAlign=top;fillColor=#2875E2;strokeColor=#ffffff;points=[[0.005,0.63,0],[0.1,0.2,0],[0.9,0.2,0],[0.5,0,0],[0.995,0.63,0],[0.72,0.99,0],[0.5,1,0],[0.28,0.99,0]];shape=mxgraph.kubernetes.icon2;prIcon=c_m" vertex="1" parent="GCUDm2AIkqy-7xgMNy4q-197">
          <mxGeometry x="310" y="40" width="50" height="48" as="geometry" />
        </mxCell>
        <mxCell id="GCUDm2AIkqy-7xgMNy4q-202" value="model-secrets" style="aspect=fixed;sketch=0;html=1;dashed=0;whitespace=wrap;verticalLabelPosition=bottom;verticalAlign=top;fillColor=#2875E2;strokeColor=#ffffff;points=[[0.005,0.63,0],[0.1,0.2,0],[0.9,0.2,0],[0.5,0,0],[0.995,0.63,0],[0.72,0.99,0],[0.5,1,0],[0.28,0.99,0]];shape=mxgraph.kubernetes.icon2;prIcon=secret" vertex="1" parent="GCUDm2AIkqy-7xgMNy4q-197">
          <mxGeometry x="380" y="22" width="50" height="48" as="geometry" />
        </mxCell>
        <mxCell id="GCUDm2AIkqy-7xgMNy4q-214" value="" style="line;strokeWidth=2;direction=south;html=1;perimeter=backbonePerimeter;points=[];outlineConnect=0;" vertex="1" parent="GCUDm2AIkqy-7xgMNy4q-197">
          <mxGeometry x="50" y="50" width="10" height="325" as="geometry" />
        </mxCell>
        <mxCell id="GCUDm2AIkqy-7xgMNy4q-215" style="rounded=0;orthogonalLoop=1;jettySize=auto;html=1;" edge="1" parent="GCUDm2AIkqy-7xgMNy4q-197" source="GCUDm2AIkqy-7xgMNy4q-204" target="GCUDm2AIkqy-7xgMNy4q-214">
          <mxGeometry relative="1" as="geometry" />
        </mxCell>
        <mxCell id="GCUDm2AIkqy-7xgMNy4q-216" style="rounded=0;orthogonalLoop=1;jettySize=auto;html=1;" edge="1" parent="GCUDm2AIkqy-7xgMNy4q-197" source="GCUDm2AIkqy-7xgMNy4q-208" target="GCUDm2AIkqy-7xgMNy4q-214">
          <mxGeometry relative="1" as="geometry" />
        </mxCell>
        <mxCell id="GCUDm2AIkqy-7xgMNy4q-217" style="rounded=0;orthogonalLoop=1;jettySize=auto;html=1;" edge="1" parent="GCUDm2AIkqy-7xgMNy4q-197" source="GCUDm2AIkqy-7xgMNy4q-211" target="GCUDm2AIkqy-7xgMNy4q-214">
          <mxGeometry relative="1" as="geometry" />
        </mxCell>
        <mxCell id="GCUDm2AIkqy-7xgMNy4q-218" style="edgeStyle=orthogonalEdgeStyle;rounded=0;orthogonalLoop=1;jettySize=auto;html=1;curved=1;startArrow=classic;startFill=1;endArrow=none;endFill=0;" edge="1" parent="1" source="GCUDm2AIkqy-7xgMNy4q-192" target="GCUDm2AIkqy-7xgMNy4q-214">
          <mxGeometry relative="1" as="geometry" />
        </mxCell>
      </root>
    </mxGraphModel>
  </diagram>
</mxfile>
